<?xml version="1.0" encoding="UTF-8"?><svg id="a" xmlns="http://www.w3.org/2000/svg" viewBox="0 0 824.05 197.31"><defs><style>.b{fill:#fff;}.c{fill:#01b3ae;}.d{fill:#03aeef;}.e{fill:#bb63ff;}.f{fill:#00458f;}</style></defs><path class="b" d="M513.2,11.07v.28c-1.97-.19-3.97-.28-5.99-.28-35.11,0-63.53,28.59-63.27,63.75,.26,34.89,29.18,62.8,64.07,62.8h54.59c4.36,0,7.89-3.53,7.89-7.89v-61.38c0-31.64-25.65-57.28-57.28-57.28Zm31.42,100.69h-36.86c-20.57,0-37.71-16.36-37.97-36.92-.27-20.89,16.58-37.92,37.42-37.92,1.2,0,2.38,.06,3.55,.17v-.17c18.71,0,33.87,15.17,33.87,33.87v40.96Z"/><path class="b" d="M760.78,11.07c-2.02,0-4.02,.1-5.99,.28v-.28c-31.64,0-57.28,25.65-57.28,57.28l.19,115.97c0,7.17,5.81,12.99,12.99,12.99s12.99-5.81,12.99-12.99v-46.71h42.11c20.5,0,39.54-11.08,49.25-29.14,26.12-48.54-8.36-97.41-54.26-97.41Zm29.94,87.09c-5.51,8.52-15.03,13.61-25.19,13.61h-42.18v-40.96c0-18.71,15.17-33.87,33.87-33.87v.17c1.17-.11,2.35-.17,3.55-.17,28.29,0,49.24,31.39,29.94,61.23Z"/><path class="b" d="M652.88,2.49c-26.8,5.61-46.26,29.56-46.26,56.96v69.15c0,4.98,4.04,9.02,9.02,9.02h9.45c4.98,0,9.02-4.04,9.02-9.02V59.45c0-13.94,9.42-26.14,22.9-29.69,3.97-1.04,6.73-4.63,6.73-8.73V11.32c0-2.72-1.23-5.29-3.33-7-2.11-1.71-4.88-2.38-7.54-1.83Z"/><path class="b" d="M413.55,20.94c0-5.46-4.43-9.88-9.89-9.88h-10.08c-1.51,0-3.03,.25-4.4,.9-3.62,1.69-5.77,5.25-5.76,9.03,.02,6.1,.05,11.68,.09,16.8l.02,3.17c.25,41.66,.06,50.76-7.12,58.82-4.74,5.33-11.29,8.28-18.38,8.29-7.2-.02-13.78-2.96-18.53-8.3-7.17-8.05-7.37-17.15-7.11-58.78l.1-20c.01-3.77-2.14-7.33-5.76-9.03-1.37-.64-2.89-.9-4.4-.9h-10.16c-1.51,0-3.03,.25-4.4,.9-3.62,1.69-5.77,5.25-5.76,9.03l.1,19.93c.26,41.69,.06,50.79-7.13,58.86-4.74,5.33-11.28,8.28-18.37,8.29-7.19-.02-13.77-2.96-18.52-8.28-7.18-8.06-7.38-17.17-7.12-58.79l.1-20c.01-3.77-2.14-7.33-5.76-9.03-1.37-.64-2.89-.9-4.41-.9h-10.08c-5.46,0-9.88,4.42-9.89,9.88-.02,14.56-.08,25.93-.12,35.05-.13,29.18-.15,32.92,1.38,39.04,7.24,31.99,33.84,43.48,54.55,43.61,13.32-.09,26.17-4.8,36.18-13.26l4.02-3.39c.17-.15,.43-.15,.6,0l4.02,3.39c10.01,8.46,22.93,13.17,36.52,13.26,22.08-.14,47.34-13.5,54.08-43.02,1.67-6.75,1.65-10.61,1.52-39.85-.04-8.97-.1-20.3-.12-34.82Z"/><g><path class="e" d="M74.84,74.84H37.98c-20.57,0-37.71-16.36-37.97-36.92C-.27,17.02,16.59,0,37.42,0c1.2,0,2.38,.06,3.55,.17v-.17c18.71,0,33.87,15.17,33.87,33.87v40.96Z"/><path class="c" d="M84.3,74.84h36.86c20.57,0,37.71-16.36,37.97-36.92,.27-20.89-16.58-37.92-37.42-37.92-1.2,0-2.38,.06-3.55,.17v-.17c-18.71,0-33.87,15.17-33.87,33.87v40.96Z"/></g><path class="d" d="M85.72,83.2h36.86c20.57,0,37.71,16.36,37.97,36.92,.27,20.89-16.58,37.92-37.42,37.92-1.2,0-2.38-.06-3.55-.17v.17c-18.71,0-33.87-15.17-33.87-33.87v-40.96Z"/><path class="f" d="M76.25,83.2H39.39c-20.57,0-37.71,16.36-37.97,36.92-.27,20.89,16.58,37.92,37.42,37.92,1.2,0,2.38-.06,3.55-.17v.17c18.71,0,33.87-15.17,33.87-33.87v-40.96Z"/></svg>